<svg xmlns="http://www.w3.org/2000/svg" width="40" height="38" viewBox="0 0 40 38">
    <g fill="none" fill-rule="nonzero">
        <path fill="#E3E3E3" d="M8.785 22.827c-.629 0-1.138.51-1.138 1.139v1.975a1.138 1.138 0 1 0 2.276 0v-1.975c0-.629-.51-1.139-1.138-1.139zM13.338 22.827c-.629 0-1.138.51-1.138 1.139v1.975a1.138 1.138 0 1 0 2.276 0v-1.975c0-.629-.51-1.139-1.138-1.139zM17.891 22.827c-.629 0-1.138.51-1.138 1.139v1.975a1.138 1.138 0 1 0 2.276 0v-1.975c0-.629-.51-1.139-1.138-1.139zM21.993 22.827c-.629 0-1.138.51-1.138 1.139v1.975a1.138 1.138 0 1 0 2.276 0v-1.975c0-.629-.51-1.139-1.138-1.139zM26.546 22.827c-.628 0-1.138.51-1.138 1.139v1.975a1.138 1.138 0 1 0 2.276 0v-1.975c0-.629-.51-1.139-1.138-1.139zM31.1 22.827c-.63 0-1.139.51-1.139 1.139v1.975a1.138 1.138 0 1 0 2.276 0v-1.975c0-.629-.51-1.139-1.138-1.139zM8.785 16.474c-.629 0-1.138.51-1.138 1.138v1.976a1.138 1.138 0 1 0 2.276 0v-1.976c0-.629-.51-1.138-1.138-1.138zM13.338 16.474c-.629 0-1.138.51-1.138 1.138v1.976a1.138 1.138 0 1 0 2.276 0v-1.976c0-.629-.51-1.138-1.138-1.138zM17.891 16.474c-.629 0-1.138.51-1.138 1.138v1.976a1.138 1.138 0 1 0 2.276 0v-1.976c0-.629-.51-1.138-1.138-1.138zM21.993 16.474c-.629 0-1.138.51-1.138 1.138v1.976a1.138 1.138 0 1 0 2.276 0v-1.976c0-.629-.51-1.138-1.138-1.138zM26.546 16.474c-.628 0-1.138.51-1.138 1.138v1.976a1.138 1.138 0 1 0 2.276 0v-1.976c0-.629-.51-1.138-1.138-1.138zM31.1 16.474c-.63 0-1.139.51-1.139 1.138v1.976a1.138 1.138 0 1 0 2.276 0v-1.976c0-.629-.51-1.138-1.138-1.138zM15.389 4.848c-.629 0-1.138.51-1.138 1.138v1.976a1.138 1.138 0 1 0 2.276 0V5.986c0-.629-.51-1.138-1.138-1.138zM19.942 4.848c-.629 0-1.138.51-1.138 1.138v1.976a1.138 1.138 0 1 0 2.276 0V5.986c0-.629-.51-1.138-1.138-1.138zM24.495 4.848c-.628 0-1.138.51-1.138 1.138v1.976a1.138 1.138 0 1 0 2.276 0V5.986c0-.629-.51-1.138-1.138-1.138z"/>
        <path fill="#FFF" d="M38.746 10.94h-8.429V1.156c0-.629-.51-1.138-1.138-1.138H10.705c-.629 0-1.138.51-1.138 1.138v9.783H1.138a1.138 1.138 0 1 0 0 2.277h1.07v23.236c0 .628.51 1.138 1.139 1.138h33.19c.63 0 1.139-.51 1.139-1.138V13.216h1.07a1.138 1.138 0 1 0 0-2.276zM25.55 35.313h-4.478a1.16 1.16 0 0 0 .007-.128v-1.71h4.47v1.838zm-6.74 0h-4.478v-1.839h4.47v1.71c0 .044.004.087.009.13zm9.016 0v-2.977c0-.628-.51-1.138-1.138-1.138H13.195c-.629 0-1.138.51-1.138 1.138v2.977H4.485V13.216h30.914v22.097h-7.572zM11.843 2.294h16.198v8.645H11.843V2.294z"/>
    </g>
</svg>
