<svg xmlns="http://www.w3.org/2000/svg" width="40" height="40" viewBox="0 0 40 40">
    <g fill="#000" fill-rule="nonzero">
        <path d="M39.427 16.644L20.898.404a1.363 1.363 0 0 0-1.796 0L.573 16.644a1.363 1.363 0 0 0 1.796 2.05l1.435-1.258V37.7c0 .753.61 1.363 1.362 1.363H34.833c.753 0 1.363-.61 1.363-1.363V17.436l1.435 1.258a1.358 1.358 0 0 0 1.922-.127 1.362 1.362 0 0 0-.126-1.923zM16.854 36.337V25.114h6.292v11.223h-6.292zm16.617-21.279v21.279h-7.6V23.75c0-.752-.61-1.362-1.362-1.362h-9.017c-.753 0-1.363.61-1.363 1.362v12.586h-7.6V15.058v-.01L20 3.241l13.472 11.807v.01z"/>
        <path d="M16.948 12.832c0 .753.61 1.363 1.363 1.363h3.378a1.362 1.362 0 0 0 0-2.725h-3.378c-.753 0-1.363.61-1.363 1.362z"/>
    </g>
</svg>
