<svg xmlns="http://www.w3.org/2000/svg" width="40" height="40" viewBox="0 0 40 40">
    <g fill="#000" fill-rule="nonzero">
        <path d="M0 38.259v.831c0 .46.372.832.832.832H39.09c.46 0 .832-.372.832-.832v-.831H0z"/>
        <path d="M15.802 14.97H2.495a.832.832 0 0 0-.832.832V39.09c0 .46.373.832.832.832h13.307c.46 0 .832-.372.832-.832V15.802a.832.832 0 0 0-.832-.831zm-.831 23.289H3.327V16.634H14.97V38.26zM37.427 4.99H24.12a.832.832 0 0 0-.832.832V39.09c0 .46.372.832.832.832h13.307c.46 0 .832-.372.832-.832V5.822a.832.832 0 0 0-.832-.832zm-.832 33.269H24.951V6.654h11.644v31.605z"/>
        <path d="M31.605 0H9.149a.832.832 0 0 0-.832.832v12.475h1.664V1.663h20.792v1.664h1.664V.832A.832.832 0 0 0 31.605 0zM4.99 18.298h1.663v14.971H4.99zM8.317 18.298H9.98v14.971H8.317zM11.644 18.298h1.663v14.971h-1.663zM24.12 9.149h9.149v1.663H24.12zM24.12 13.307h9.149v1.663H24.12zM24.12 17.466h9.149v1.663H24.12zM24.12 21.624h9.149v1.663H24.12zM24.12 25.783h9.149v1.663H24.12zM24.12 29.942h9.149v1.663H24.12z"/>
        <path d="M12.476 4.159h1.663v2.495h-1.663zM12.476 9.149h1.663v2.495h-1.663zM15.802 9.149h1.663v2.495h-1.663zM15.802 4.159h1.663v2.495h-1.663zM19.129 4.159h1.663v2.495h-1.663zM19.129 9.149h1.663v2.495h-1.663zM19.129 14.139h1.663v2.495h-1.663zM19.129 19.129h1.663v2.495h-1.663zM19.129 24.12h1.663v2.495h-1.663zM19.129 29.11h1.663v2.495h-1.663zM31.605 34.1h-4.159a.832.832 0 0 0-.831.832v4.158h1.663v-3.327h2.495v3.327h1.664v-4.158a.832.832 0 0 0-.832-.832zM12.476 34.932H5.822a.832.832 0 0 0-.832.832v3.326h1.664v-2.495h4.99v2.495h1.663v-3.326a.832.832 0 0 0-.831-.832z"/>
    </g>
</svg>
