<svg width="396" height="487" viewBox="0 0 396 487" fill="none" xmlns="http://www.w3.org/2000/svg">
<g filter="url(#filter0_d_2561_218)">
<rect x="8.7168" y="7" width="379.18" height="470.224" rx="16" fill="white"/>
</g>
<path d="M50.5555 54.4612L43.1635 37.6612H45.7555L52.5475 53.1652H51.0595L57.8995 37.6612H60.2995L52.9315 54.4612H50.5555ZM66.6029 54.6052C65.3229 54.6052 64.1869 54.3252 63.1949 53.7652C62.2029 53.2052 61.4189 52.4372 60.8429 51.4612C60.2669 50.4692 59.9789 49.3492 59.9789 48.1012C59.9789 46.8372 60.2669 45.7172 60.8429 44.7412C61.4189 43.7652 62.2029 43.0052 63.1949 42.4612C64.1869 41.9012 65.3229 41.6212 66.6029 41.6212C67.8669 41.6212 68.9949 41.9012 69.9869 42.4612C70.9949 43.0052 71.7789 43.7652 72.3389 44.7412C72.9149 45.7012 73.2029 46.8212 73.2029 48.1012C73.2029 49.3652 72.9149 50.4852 72.3389 51.4612C71.7789 52.4372 70.9949 53.2052 69.9869 53.7652C68.9949 54.3252 67.8669 54.6052 66.6029 54.6052ZM66.6029 52.5892C67.4189 52.5892 68.1469 52.4052 68.7869 52.0372C69.4429 51.6692 69.9549 51.1492 70.3229 50.4772C70.6909 49.7892 70.8749 48.9972 70.8749 48.1012C70.8749 47.1892 70.6909 46.4052 70.3229 45.7492C69.9549 45.0772 69.4429 44.5572 68.7869 44.1892C68.1469 43.8212 67.4189 43.6372 66.6029 43.6372C65.7869 43.6372 65.0589 43.8212 64.4189 44.1892C63.7789 44.5572 63.2669 45.0772 62.8829 45.7492C62.4989 46.4052 62.3069 47.1892 62.3069 48.1012C62.3069 48.9972 62.4989 49.7892 62.8829 50.4772C63.2669 51.1492 63.7789 51.6692 64.4189 52.0372C65.0589 52.4052 65.7869 52.5892 66.6029 52.5892ZM76.3993 54.4612V36.6532H78.7033V54.4612H76.3993ZM88.4644 54.6052C87.3764 54.6052 86.4164 54.4052 85.5844 54.0052C84.7684 53.6052 84.1284 52.9972 83.6644 52.1812C83.2164 51.3492 82.9924 50.3092 82.9924 49.0612V41.7412H85.2964V48.7972C85.2964 50.0452 85.5924 50.9812 86.1844 51.6052C86.7924 52.2292 87.6404 52.5412 88.7284 52.5412C89.5284 52.5412 90.2244 52.3812 90.8164 52.0612C91.4084 51.7252 91.8644 51.2452 92.1844 50.6212C92.5044 49.9812 92.6644 49.2132 92.6644 48.3172V41.7412H94.9684V54.4612H92.7844V51.0292L93.1444 51.9412C92.7284 52.7892 92.1044 53.4452 91.2724 53.9092C90.4404 54.3732 89.5044 54.6052 88.4644 54.6052ZM115.277 41.6212C116.301 41.6212 117.205 41.8212 117.989 42.2212C118.773 42.6212 119.381 43.2292 119.813 44.0452C120.261 44.8612 120.485 45.8932 120.485 47.1412V54.4612H118.181V47.4052C118.181 46.1732 117.893 45.2452 117.317 44.6212C116.741 43.9972 115.933 43.6852 114.893 43.6852C114.125 43.6852 113.453 43.8452 112.877 44.1652C112.301 44.4852 111.853 44.9572 111.533 45.5812C111.229 46.2052 111.077 46.9812 111.077 47.9092V54.4612H108.773V47.4052C108.773 46.1732 108.485 45.2452 107.909 44.6212C107.349 43.9972 106.541 43.6852 105.485 43.6852C104.733 43.6852 104.069 43.8452 103.493 44.1652C102.917 44.4852 102.469 44.9572 102.149 45.5812C101.829 46.2052 101.669 46.9812 101.669 47.9092V54.4612H99.3646V41.7412H101.573V45.1252L101.213 44.2612C101.613 43.4292 102.229 42.7812 103.061 42.3172C103.893 41.8532 104.861 41.6212 105.965 41.6212C107.181 41.6212 108.229 41.9252 109.109 42.5332C109.989 43.1252 110.565 44.0292 110.837 45.2452L109.901 44.8612C110.285 43.8852 110.957 43.1012 111.917 42.5092C112.877 41.9172 113.997 41.6212 115.277 41.6212ZM130.398 54.6052C129.038 54.6052 127.838 54.3252 126.798 53.7652C125.774 53.2052 124.974 52.4372 124.398 51.4612C123.838 50.4852 123.558 49.3652 123.558 48.1012C123.558 46.8372 123.83 45.7172 124.374 44.7412C124.934 43.7652 125.694 43.0052 126.654 42.4612C127.63 41.9012 128.726 41.6212 129.942 41.6212C131.174 41.6212 132.262 41.8932 133.206 42.4372C134.15 42.9812 134.886 43.7492 135.414 44.7412C135.958 45.7172 136.23 46.8612 136.23 48.1732C136.23 48.2692 136.222 48.3812 136.206 48.5092C136.206 48.6372 136.198 48.7572 136.182 48.8692H125.358V47.2132H134.982L134.046 47.7892C134.062 46.9732 133.894 46.2452 133.542 45.6052C133.19 44.9652 132.702 44.4692 132.078 44.1172C131.47 43.7492 130.758 43.5652 129.942 43.5652C129.142 43.5652 128.43 43.7492 127.806 44.1172C127.182 44.4692 126.694 44.9732 126.342 45.6292C125.99 46.2692 125.814 47.0052 125.814 47.8372V48.2212C125.814 49.0692 126.006 49.8292 126.39 50.5012C126.79 51.1572 127.342 51.6692 128.046 52.0372C128.75 52.4052 129.558 52.5892 130.47 52.5892C131.222 52.5892 131.902 52.4612 132.51 52.2052C133.134 51.9492 133.678 51.5652 134.142 51.0532L135.414 52.5412C134.838 53.2132 134.118 53.7252 133.254 54.0772C132.406 54.4292 131.454 54.6052 130.398 54.6052ZM151.151 54.6052C149.919 54.6052 148.815 54.3332 147.839 53.7892C146.879 53.2452 146.119 52.4852 145.559 51.5092C144.999 50.5332 144.719 49.3972 144.719 48.1012C144.719 46.8052 144.999 45.6772 145.559 44.7172C146.119 43.7412 146.879 42.9812 147.839 42.4372C148.815 41.8932 149.919 41.6212 151.151 41.6212C152.223 41.6212 153.191 41.8612 154.055 42.3412C154.919 42.8212 155.607 43.5412 156.119 44.5012C156.647 45.4612 156.911 46.6612 156.911 48.1012C156.911 49.5412 156.655 50.7412 156.143 51.7012C155.647 52.6612 154.967 53.3892 154.103 53.8852C153.239 54.3652 152.255 54.6052 151.151 54.6052ZM151.343 52.5892C152.143 52.5892 152.863 52.4052 153.503 52.0372C154.159 51.6692 154.671 51.1492 155.039 50.4772C155.423 49.7892 155.615 48.9972 155.615 48.1012C155.615 47.1892 155.423 46.4052 155.039 45.7492C154.671 45.0772 154.159 44.5572 153.503 44.1892C152.863 43.8212 152.143 43.6372 151.343 43.6372C150.527 43.6372 149.799 43.8212 149.159 44.1892C148.519 44.5572 148.007 45.0772 147.623 45.7492C147.239 46.4052 147.047 47.1892 147.047 48.1012C147.047 48.9972 147.239 49.7892 147.623 50.4772C148.007 51.1492 148.519 51.6692 149.159 52.0372C149.799 52.4052 150.527 52.5892 151.343 52.5892ZM155.687 54.4612V51.0292L155.831 48.0772L155.591 45.1252V36.6532H157.895V54.4612H155.687ZM167.928 54.6052C166.568 54.6052 165.368 54.3252 164.328 53.7652C163.304 53.2052 162.504 52.4372 161.928 51.4612C161.368 50.4852 161.088 49.3652 161.088 48.1012C161.088 46.8372 161.36 45.7172 161.904 44.7412C162.464 43.7652 163.224 43.0052 164.184 42.4612C165.16 41.9012 166.256 41.6212 167.472 41.6212C168.704 41.6212 169.792 41.8932 170.736 42.4372C171.68 42.9812 172.416 43.7492 172.944 44.7412C173.488 45.7172 173.76 46.8612 173.76 48.1732C173.76 48.2692 173.752 48.3812 173.736 48.5092C173.736 48.6372 173.728 48.7572 173.712 48.8692H162.888V47.2132H172.512L171.576 47.7892C171.592 46.9732 171.424 46.2452 171.072 45.6052C170.72 44.9652 170.232 44.4692 169.608 44.1172C169 43.7492 168.288 43.5652 167.472 43.5652C166.672 43.5652 165.96 43.7492 165.336 44.1172C164.712 44.4692 164.224 44.9732 163.872 45.6292C163.52 46.2692 163.344 47.0052 163.344 47.8372V48.2212C163.344 49.0692 163.536 49.8292 163.92 50.5012C164.32 51.1572 164.872 51.6692 165.576 52.0372C166.28 52.4052 167.088 52.5892 168 52.5892C168.752 52.5892 169.432 52.4612 170.04 52.2052C170.664 51.9492 171.208 51.5652 171.672 51.0532L172.944 52.5412C172.368 53.2132 171.648 53.7252 170.784 54.0772C169.936 54.4292 168.984 54.6052 167.928 54.6052ZM186.761 54.4612L181.193 41.7412H183.593L188.537 53.2612H187.385L192.425 41.7412H194.681L189.113 54.4612H186.761ZM202.153 54.6052C200.793 54.6052 199.593 54.3252 198.553 53.7652C197.529 53.2052 196.729 52.4372 196.153 51.4612C195.593 50.4852 195.313 49.3652 195.313 48.1012C195.313 46.8372 195.585 45.7172 196.129 44.7412C196.689 43.7652 197.449 43.0052 198.409 42.4612C199.385 41.9012 200.481 41.6212 201.697 41.6212C202.929 41.6212 204.017 41.8932 204.961 42.4372C205.905 42.9812 206.641 43.7492 207.169 44.7412C207.713 45.7172 207.985 46.8612 207.985 48.1732C207.985 48.2692 207.977 48.3812 207.961 48.5092C207.961 48.6372 207.953 48.7572 207.937 48.8692H197.113V47.2132H206.737L205.801 47.7892C205.817 46.9732 205.649 46.2452 205.297 45.6052C204.945 44.9652 204.457 44.4692 203.833 44.1172C203.225 43.7492 202.513 43.5652 201.697 43.5652C200.897 43.5652 200.185 43.7492 199.561 44.1172C198.937 44.4692 198.449 44.9732 198.097 45.6292C197.745 46.2692 197.569 47.0052 197.569 47.8372V48.2212C197.569 49.0692 197.761 49.8292 198.145 50.5012C198.545 51.1572 199.097 51.6692 199.801 52.0372C200.505 52.4052 201.313 52.5892 202.225 52.5892C202.977 52.5892 203.657 52.4612 204.265 52.2052C204.889 51.9492 205.433 51.5652 205.897 51.0532L207.169 52.5412C206.593 53.2132 205.873 53.7252 205.009 54.0772C204.161 54.4292 203.209 54.6052 202.153 54.6052ZM217.987 41.6212C219.027 41.6212 219.939 41.8212 220.723 42.2212C221.523 42.6212 222.147 43.2292 222.595 44.0452C223.043 44.8612 223.267 45.8932 223.267 47.1412V54.4612H220.963V47.4052C220.963 46.1732 220.659 45.2452 220.051 44.6212C219.459 43.9972 218.619 43.6852 217.531 43.6852C216.715 43.6852 216.003 43.8452 215.395 44.1652C214.787 44.4852 214.315 44.9572 213.979 45.5812C213.659 46.2052 213.499 46.9812 213.499 47.9092V54.4612H211.195V41.7412H213.403V45.1732L213.043 44.2612C213.459 43.4292 214.099 42.7812 214.963 42.3172C215.827 41.8532 216.835 41.6212 217.987 41.6212ZM232.797 54.6052C231.565 54.6052 230.461 54.3332 229.485 53.7892C228.525 53.2452 227.765 52.4852 227.205 51.5092C226.645 50.5332 226.365 49.3972 226.365 48.1012C226.365 46.8052 226.645 45.6772 227.205 44.7172C227.765 43.7412 228.525 42.9812 229.485 42.4372C230.461 41.8932 231.565 41.6212 232.797 41.6212C233.869 41.6212 234.837 41.8612 235.701 42.3412C236.565 42.8212 237.253 43.5412 237.765 44.5012C238.293 45.4612 238.557 46.6612 238.557 48.1012C238.557 49.5412 238.301 50.7412 237.789 51.7012C237.293 52.6612 236.613 53.3892 235.749 53.8852C234.885 54.3652 233.901 54.6052 232.797 54.6052ZM232.989 52.5892C233.789 52.5892 234.509 52.4052 235.149 52.0372C235.805 51.6692 236.317 51.1492 236.685 50.4772C237.069 49.7892 237.261 48.9972 237.261 48.1012C237.261 47.1892 237.069 46.4052 236.685 45.7492C236.317 45.0772 235.805 44.5572 235.149 44.1892C234.509 43.8212 233.789 43.6372 232.989 43.6372C232.173 43.6372 231.445 43.8212 230.805 44.1892C230.165 44.5572 229.653 45.0772 229.269 45.7492C228.885 46.4052 228.693 47.1892 228.693 48.1012C228.693 48.9972 228.885 49.7892 229.269 50.4772C229.653 51.1492 230.165 51.6692 230.805 52.0372C231.445 52.4052 232.173 52.5892 232.989 52.5892ZM237.333 54.4612V51.0292L237.477 48.0772L237.237 45.1252V36.6532H239.541V54.4612H237.333ZM251.806 54.4612V51.7732L251.686 51.2692V46.6852C251.686 45.7092 251.398 44.9572 250.822 44.4292C250.262 43.8852 249.414 43.6132 248.278 43.6132C247.526 43.6132 246.79 43.7412 246.07 43.9972C245.35 44.2372 244.742 44.5652 244.246 44.9812L243.286 43.2532C243.942 42.7252 244.726 42.3252 245.638 42.0532C246.566 41.7652 247.534 41.6212 248.542 41.6212C250.286 41.6212 251.63 42.0452 252.574 42.8932C253.518 43.7412 253.99 45.0372 253.99 46.7812V54.4612H251.806ZM247.63 54.6052C246.686 54.6052 245.854 54.4452 245.134 54.1252C244.43 53.8052 243.886 53.3652 243.502 52.8052C243.118 52.2292 242.926 51.5812 242.926 50.8612C242.926 50.1732 243.086 49.5492 243.406 48.9892C243.742 48.4292 244.278 47.9812 245.014 47.6452C245.766 47.3092 246.774 47.1412 248.038 47.1412H252.07V48.7972H248.134C246.982 48.7972 246.206 48.9892 245.806 49.3732C245.406 49.7572 245.206 50.2212 245.206 50.7652C245.206 51.3892 245.454 51.8932 245.95 52.2772C246.446 52.6452 247.134 52.8292 248.014 52.8292C248.878 52.8292 249.63 52.6372 250.27 52.2532C250.926 51.8692 251.398 51.3092 251.686 50.5732L252.142 52.1572C251.838 52.9092 251.302 53.5092 250.534 53.9572C249.766 54.3892 248.798 54.6052 247.63 54.6052ZM261.912 54.6052C260.856 54.6052 259.848 54.4612 258.888 54.1732C257.944 53.8852 257.2 53.5332 256.656 53.1172L257.616 51.2932C258.16 51.6612 258.832 51.9732 259.632 52.2292C260.432 52.4852 261.248 52.6132 262.08 52.6132C263.152 52.6132 263.92 52.4612 264.384 52.1572C264.864 51.8532 265.104 51.4292 265.104 50.8852C265.104 50.4852 264.96 50.1732 264.672 49.9492C264.384 49.7252 264 49.5572 263.52 49.4452C263.056 49.3332 262.536 49.2372 261.96 49.1572C261.384 49.0612 260.808 48.9492 260.232 48.8212C259.656 48.6772 259.128 48.4852 258.648 48.2452C258.168 47.9892 257.784 47.6452 257.496 47.2132C257.208 46.7652 257.064 46.1732 257.064 45.4372C257.064 44.6692 257.28 43.9972 257.712 43.4212C258.144 42.8452 258.752 42.4052 259.536 42.1012C260.336 41.7812 261.28 41.6212 262.368 41.6212C263.2 41.6212 264.04 41.7252 264.888 41.9332C265.752 42.1252 266.456 42.4052 267 42.7732L266.016 44.5972C265.44 44.2132 264.84 43.9492 264.216 43.8052C263.592 43.6612 262.968 43.5892 262.344 43.5892C261.336 43.5892 260.584 43.7572 260.088 44.0932C259.592 44.4132 259.344 44.8292 259.344 45.3412C259.344 45.7732 259.488 46.1092 259.776 46.3492C260.08 46.5732 260.464 46.7492 260.928 46.8772C261.408 47.0052 261.936 47.1172 262.512 47.2132C263.088 47.2932 263.664 47.4052 264.24 47.5492C264.816 47.6772 265.336 47.8612 265.8 48.1012C266.28 48.3412 266.664 48.6772 266.952 49.1092C267.256 49.5412 267.408 50.1172 267.408 50.8372C267.408 51.6052 267.184 52.2692 266.736 52.8292C266.288 53.3892 265.656 53.8292 264.84 54.1492C264.024 54.4532 263.048 54.6052 261.912 54.6052Z" fill="#414D55"/>
<path d="M50.082 477.224V81.2463" stroke="url(#paint0_linear_2561_218)" stroke-linecap="square" stroke-dasharray="6"/>
<path d="M77.6584 477.225V81.2466" stroke="url(#paint1_linear_2561_218)" stroke-linecap="square" stroke-dasharray="6"/>
<path d="M103.856 477.225V81.2466" stroke="url(#paint2_linear_2561_218)" stroke-linecap="square" stroke-dasharray="6"/>
<path d="M131.433 477.225V81.2466" stroke="url(#paint3_linear_2561_218)" stroke-linecap="square" stroke-dasharray="6"/>
<path d="M157.631 477.225V81.2466" stroke="url(#paint4_linear_2561_218)" stroke-linecap="square" stroke-dasharray="6"/>
<path d="M185.208 477.225V81.2466" stroke="url(#paint5_linear_2561_218)" stroke-linecap="square" stroke-dasharray="6"/>
<path d="M211.405 477.225V81.2466" stroke="url(#paint6_linear_2561_218)" stroke-linecap="square" stroke-dasharray="6"/>
<path d="M238.982 477.225V81.2466" stroke="url(#paint7_linear_2561_218)" stroke-linecap="square" stroke-dasharray="6"/>
<path d="M265.18 477.225V81.2466" stroke="url(#paint8_linear_2561_218)" stroke-linecap="square" stroke-dasharray="6"/>
<path d="M292.757 477.225V81.2466" stroke="url(#paint9_linear_2561_218)" stroke-linecap="square" stroke-dasharray="6"/>
<path d="M318.955 477.225V81.2466" stroke="url(#paint10_linear_2561_218)" stroke-linecap="square" stroke-dasharray="6"/>
<path d="M346.531 477.225V81.2466" stroke="url(#paint11_linear_2561_218)" stroke-linecap="square" stroke-dasharray="6"/>
<path d="M319.012 100.733V101.671H314.246V100.865L316.561 98.3406C316.815 98.0541 317.015 97.8067 317.161 97.5984C317.308 97.3901 317.41 97.2029 317.469 97.0369C317.531 96.8676 317.562 96.7032 317.562 96.5437C317.562 96.3191 317.519 96.1222 317.435 95.9529C317.353 95.7804 317.233 95.6453 317.073 95.5476C316.914 95.4467 316.72 95.3962 316.492 95.3962C316.229 95.3962 316.007 95.4532 315.828 95.5671C315.649 95.6811 315.514 95.8389 315.423 96.0408C315.332 96.2393 315.286 96.4672 315.286 96.7244H314.11C314.11 96.311 314.204 95.9333 314.393 95.5916C314.582 95.2465 314.855 94.9731 315.213 94.7712C315.571 94.5662 316.002 94.4636 316.507 94.4636C316.982 94.4636 317.386 94.5434 317.718 94.7029C318.05 94.8624 318.302 95.0886 318.475 95.3816C318.651 95.6746 318.738 96.0212 318.738 96.4216C318.738 96.643 318.703 96.8627 318.631 97.0808C318.559 97.2989 318.457 97.517 318.323 97.7351C318.193 97.95 318.039 98.1664 317.86 98.3845C317.681 98.5994 317.484 98.8175 317.269 99.0388L315.731 100.733H319.012ZM324.98 97.5203V98.6824C324.98 99.239 324.925 99.7143 324.814 100.108C324.707 100.499 324.551 100.816 324.346 101.06C324.14 101.304 323.895 101.483 323.608 101.597C323.325 101.711 323.008 101.768 322.656 101.768C322.376 101.768 322.116 101.733 321.875 101.661C321.637 101.589 321.422 101.477 321.23 101.324C321.038 101.171 320.874 100.974 320.737 100.733C320.604 100.489 320.5 100.198 320.425 99.8591C320.353 99.5206 320.317 99.1283 320.317 98.6824V97.5203C320.317 96.9604 320.373 96.4884 320.483 96.1042C320.594 95.7169 320.752 95.4028 320.957 95.1619C321.162 94.9177 321.406 94.7403 321.689 94.6296C321.976 94.519 322.295 94.4636 322.646 94.4636C322.93 94.4636 323.19 94.4994 323.428 94.571C323.668 94.6394 323.883 94.7485 324.072 94.8982C324.264 95.0479 324.427 95.2432 324.56 95.4841C324.697 95.7218 324.801 96.0098 324.873 96.3484C324.945 96.6837 324.98 97.0743 324.98 97.5203ZM323.804 98.8484V97.3445C323.804 97.0613 323.787 96.8123 323.755 96.5974C323.722 96.3793 323.673 96.1954 323.608 96.0457C323.546 95.8927 323.468 95.769 323.374 95.6746C323.279 95.5769 323.172 95.5069 323.052 95.4646C322.931 95.419 322.796 95.3962 322.646 95.3962C322.464 95.3962 322.301 95.432 322.158 95.5037C322.015 95.572 321.894 95.6827 321.797 95.8357C321.699 95.9887 321.624 96.1905 321.572 96.4412C321.523 96.6886 321.499 96.9897 321.499 97.3445V98.8484C321.499 99.1348 321.515 99.3871 321.548 99.6052C321.58 99.8233 321.629 100.01 321.694 100.167C321.759 100.32 321.837 100.447 321.929 100.548C322.023 100.645 322.13 100.717 322.251 100.762C322.375 100.808 322.51 100.831 322.656 100.831C322.842 100.831 323.006 100.795 323.149 100.723C323.292 100.652 323.413 100.538 323.511 100.382C323.608 100.222 323.681 100.015 323.73 99.7615C323.779 99.5076 323.804 99.2032 323.804 98.8484ZM326.53 101.085C326.53 100.902 326.592 100.749 326.715 100.626C326.839 100.499 327.007 100.435 327.218 100.435C327.433 100.435 327.601 100.499 327.721 100.626C327.845 100.749 327.907 100.902 327.907 101.085C327.907 101.267 327.845 101.42 327.721 101.544C327.601 101.667 327.433 101.729 327.218 101.729C327.007 101.729 326.839 101.667 326.715 101.544C326.592 101.42 326.53 101.267 326.53 101.085ZM326.535 96.9246C326.535 96.7423 326.597 96.5893 326.72 96.4656C326.844 96.3386 327.012 96.2751 327.223 96.2751C327.438 96.2751 327.606 96.3386 327.726 96.4656C327.85 96.5893 327.912 96.7423 327.912 96.9246C327.912 97.1069 327.85 97.2598 327.726 97.3835C327.606 97.5072 327.438 97.5691 327.223 97.5691C327.012 97.5691 326.844 97.5072 326.72 97.3835C326.597 97.2598 326.535 97.1069 326.535 96.9246ZM334.134 97.5203V98.6824C334.134 99.239 334.079 99.7143 333.968 100.108C333.861 100.499 333.704 100.816 333.499 101.06C333.294 101.304 333.048 101.483 332.762 101.597C332.479 101.711 332.161 101.768 331.81 101.768C331.53 101.768 331.269 101.733 331.028 101.661C330.791 101.589 330.576 101.477 330.384 101.324C330.192 101.171 330.028 100.974 329.891 100.733C329.757 100.489 329.653 100.198 329.578 99.8591C329.507 99.5206 329.471 99.1283 329.471 98.6824V97.5203C329.471 96.9604 329.526 96.4884 329.637 96.1042C329.748 95.7169 329.905 95.4028 330.111 95.1619C330.316 94.9177 330.56 94.7403 330.843 94.6296C331.129 94.519 331.448 94.4636 331.8 94.4636C332.083 94.4636 332.344 94.4994 332.581 94.571C332.822 94.6394 333.037 94.7485 333.226 94.8982C333.418 95.0479 333.581 95.2432 333.714 95.4841C333.851 95.7218 333.955 96.0098 334.027 96.3484C334.098 96.6837 334.134 97.0743 334.134 97.5203ZM332.957 98.8484V97.3445C332.957 97.0613 332.941 96.8123 332.908 96.5974C332.876 96.3793 332.827 96.1954 332.762 96.0457C332.7 95.8927 332.622 95.769 332.528 95.6746C332.433 95.5769 332.326 95.5069 332.205 95.4646C332.085 95.419 331.95 95.3962 331.8 95.3962C331.618 95.3962 331.455 95.432 331.312 95.5037C331.168 95.572 331.048 95.6827 330.95 95.8357C330.853 95.9887 330.778 96.1905 330.726 96.4412C330.677 96.6886 330.653 96.9897 330.653 97.3445V98.8484C330.653 99.1348 330.669 99.3871 330.701 99.6052C330.734 99.8233 330.783 100.01 330.848 100.167C330.913 100.32 330.991 100.447 331.082 100.548C331.177 100.645 331.284 100.717 331.404 100.762C331.528 100.808 331.663 100.831 331.81 100.831C331.995 100.831 332.16 100.795 332.303 100.723C332.446 100.652 332.567 100.538 332.664 100.382C332.762 100.222 332.835 100.015 332.884 99.7615C332.933 99.5076 332.957 99.2032 332.957 98.8484ZM340.234 97.5203V98.6824C340.234 99.239 340.179 99.7143 340.068 100.108C339.961 100.499 339.805 100.816 339.599 101.06C339.394 101.304 339.149 101.483 338.862 101.597C338.579 101.711 338.262 101.768 337.91 101.768C337.63 101.768 337.37 101.733 337.129 101.661C336.891 101.589 336.676 101.477 336.484 101.324C336.292 101.171 336.128 100.974 335.991 100.733C335.858 100.489 335.753 100.198 335.679 99.8591C335.607 99.5206 335.571 99.1283 335.571 98.6824V97.5203C335.571 96.9604 335.626 96.4884 335.737 96.1042C335.848 95.7169 336.006 95.4028 336.211 95.1619C336.416 94.9177 336.66 94.7403 336.943 94.6296C337.23 94.519 337.549 94.4636 337.9 94.4636C338.183 94.4636 338.444 94.4994 338.681 94.571C338.922 94.6394 339.137 94.7485 339.326 94.8982C339.518 95.0479 339.681 95.2432 339.814 95.4841C339.951 95.7218 340.055 96.0098 340.127 96.3484C340.198 96.6837 340.234 97.0743 340.234 97.5203ZM339.057 98.8484V97.3445C339.057 97.0613 339.041 96.8123 339.009 96.5974C338.976 96.3793 338.927 96.1954 338.862 96.0457C338.8 95.8927 338.722 95.769 338.628 95.6746C338.533 95.5769 338.426 95.5069 338.306 95.4646C338.185 95.419 338.05 95.3962 337.9 95.3962C337.718 95.3962 337.555 95.432 337.412 95.5037C337.269 95.572 337.148 95.6827 337.051 95.8357C336.953 95.9887 336.878 96.1905 336.826 96.4412C336.777 96.6886 336.753 96.9897 336.753 97.3445V98.8484C336.753 99.1348 336.769 99.3871 336.802 99.6052C336.834 99.8233 336.883 100.01 336.948 100.167C337.013 100.32 337.091 100.447 337.182 100.548C337.277 100.645 337.384 100.717 337.505 100.762C337.628 100.808 337.764 100.831 337.91 100.831C338.096 100.831 338.26 100.795 338.403 100.723C338.546 100.652 338.667 100.538 338.764 100.382C338.862 100.222 338.935 100.015 338.984 99.7615C339.033 99.5076 339.057 99.2032 339.057 98.8484Z" fill="#696D6E"/>
<path d="M229.213 94.5369V101.671H228.036V95.9333L226.293 96.5242V95.5525L229.071 94.5369H229.213ZM235.655 94.5173H235.802V95.4792H235.719C235.299 95.4792 234.936 95.5444 234.63 95.6746C234.327 95.8048 234.078 95.9838 233.883 96.2117C233.687 96.4395 233.541 96.7065 233.443 97.0125C233.349 97.3152 233.302 97.6375 233.302 97.9792V99.0974C233.302 99.3806 233.333 99.6313 233.394 99.8494C233.456 100.064 233.542 100.245 233.653 100.391C233.767 100.535 233.897 100.644 234.044 100.719C234.19 100.793 234.348 100.831 234.517 100.831C234.693 100.831 234.853 100.795 234.996 100.723C235.139 100.649 235.261 100.546 235.362 100.416C235.463 100.286 235.54 100.131 235.592 99.9519C235.644 99.7729 235.67 99.5776 235.67 99.366C235.67 99.1641 235.644 98.9753 235.592 98.7996C235.543 98.6205 235.47 98.4643 235.372 98.3308C235.274 98.1941 235.152 98.0883 235.006 98.0134C234.862 97.9353 234.696 97.8962 234.508 97.8962C234.273 97.8962 234.06 97.9516 233.868 98.0623C233.679 98.1729 233.526 98.3178 233.409 98.4968C233.295 98.6726 233.233 98.8598 233.223 99.0583L232.774 98.9119C232.8 98.6091 232.867 98.3373 232.974 98.0964C233.085 97.8556 233.23 97.6505 233.409 97.4812C233.588 97.3119 233.795 97.1833 234.029 97.0955C234.267 97.0043 234.527 96.9587 234.81 96.9587C235.155 96.9587 235.455 97.0238 235.709 97.1541C235.963 97.2843 236.173 97.4617 236.339 97.6863C236.508 97.9076 236.633 98.1615 236.715 98.448C236.799 98.7312 236.842 99.0274 236.842 99.3367C236.842 99.6785 236.79 99.9975 236.685 100.294C236.581 100.587 236.428 100.844 236.226 101.065C236.028 101.287 235.785 101.459 235.499 101.583C235.216 101.706 234.893 101.768 234.532 101.768C234.151 101.768 233.811 101.695 233.512 101.549C233.215 101.402 232.963 101.2 232.755 100.943C232.55 100.686 232.393 100.39 232.286 100.054C232.179 99.7192 232.125 99.3643 232.125 98.99V98.5017C232.125 97.9613 232.193 97.4519 232.33 96.9734C232.467 96.4916 232.677 96.0668 232.96 95.699C233.246 95.3311 233.612 95.0431 234.058 94.8347C234.504 94.6231 235.037 94.5173 235.655 94.5173ZM238.284 101.085C238.284 100.902 238.346 100.749 238.469 100.626C238.593 100.499 238.761 100.435 238.972 100.435C239.187 100.435 239.355 100.499 239.475 100.626C239.599 100.749 239.661 100.902 239.661 101.085C239.661 101.267 239.599 101.42 239.475 101.544C239.355 101.667 239.187 101.729 238.972 101.729C238.761 101.729 238.593 101.667 238.469 101.544C238.346 101.42 238.284 101.267 238.284 101.085ZM238.289 96.9246C238.289 96.7423 238.35 96.5893 238.474 96.4656C238.598 96.3386 238.765 96.2751 238.977 96.2751C239.192 96.2751 239.36 96.3386 239.48 96.4656C239.604 96.5893 239.666 96.7423 239.666 96.9246C239.666 97.1069 239.604 97.2598 239.48 97.3835C239.36 97.5072 239.192 97.5691 238.977 97.5691C238.765 97.5691 238.598 97.5072 238.474 97.3835C238.35 97.2598 238.289 97.1069 238.289 96.9246ZM245.888 97.5203V98.6824C245.888 99.239 245.833 99.7143 245.722 100.108C245.614 100.499 245.458 100.816 245.253 101.06C245.048 101.304 244.802 101.483 244.516 101.597C244.233 101.711 243.915 101.768 243.564 101.768C243.284 101.768 243.023 101.733 242.782 101.661C242.545 101.589 242.33 101.477 242.138 101.324C241.946 101.171 241.781 100.974 241.645 100.733C241.511 100.489 241.407 100.198 241.332 99.8591C241.261 99.5206 241.225 99.1283 241.225 98.6824V97.5203C241.225 96.9604 241.28 96.4884 241.391 96.1042C241.501 95.7169 241.659 95.4028 241.864 95.1619C242.07 94.9177 242.314 94.7403 242.597 94.6296C242.883 94.519 243.202 94.4636 243.554 94.4636C243.837 94.4636 244.097 94.4994 244.335 94.571C244.576 94.6394 244.791 94.7485 244.98 94.8982C245.172 95.0479 245.334 95.2432 245.468 95.4841C245.605 95.7218 245.709 96.0098 245.78 96.3484C245.852 96.6837 245.888 97.0743 245.888 97.5203ZM244.711 98.8484V97.3445C244.711 97.0613 244.695 96.8123 244.662 96.5974C244.63 96.3793 244.581 96.1954 244.516 96.0457C244.454 95.8927 244.376 95.769 244.281 95.6746C244.187 95.5769 244.08 95.5069 243.959 95.4646C243.839 95.419 243.704 95.3962 243.554 95.3962C243.372 95.3962 243.209 95.432 243.066 95.5037C242.922 95.572 242.802 95.6827 242.704 95.8357C242.607 95.9887 242.532 96.1905 242.48 96.4412C242.431 96.6886 242.406 96.9897 242.406 97.3445V98.8484C242.406 99.1348 242.423 99.3871 242.455 99.6052C242.488 99.8233 242.537 100.01 242.602 100.167C242.667 100.32 242.745 100.447 242.836 100.548C242.931 100.645 243.038 100.717 243.158 100.762C243.282 100.808 243.417 100.831 243.564 100.831C243.749 100.831 243.914 100.795 244.057 100.723C244.2 100.652 244.32 100.538 244.418 100.382C244.516 100.222 244.589 100.015 244.638 99.7615C244.687 99.5076 244.711 99.2032 244.711 98.8484ZM251.988 97.5203V98.6824C251.988 99.239 251.933 99.7143 251.822 100.108C251.715 100.499 251.558 100.816 251.353 101.06C251.148 101.304 250.903 101.483 250.616 101.597C250.333 101.711 250.015 101.768 249.664 101.768C249.384 101.768 249.124 101.733 248.883 101.661C248.645 101.589 248.43 101.477 248.238 101.324C248.046 101.171 247.882 100.974 247.745 100.733C247.611 100.489 247.507 100.198 247.432 99.8591C247.361 99.5206 247.325 99.1283 247.325 98.6824V97.5203C247.325 96.9604 247.38 96.4884 247.491 96.1042C247.602 95.7169 247.76 95.4028 247.965 95.1619C248.17 94.9177 248.414 94.7403 248.697 94.6296C248.984 94.519 249.303 94.4636 249.654 94.4636C249.937 94.4636 250.198 94.4994 250.435 94.571C250.676 94.6394 250.891 94.7485 251.08 94.8982C251.272 95.0479 251.435 95.2432 251.568 95.4841C251.705 95.7218 251.809 96.0098 251.881 96.3484C251.952 96.6837 251.988 97.0743 251.988 97.5203ZM250.811 98.8484V97.3445C250.811 97.0613 250.795 96.8123 250.763 96.5974C250.73 96.3793 250.681 96.1954 250.616 96.0457C250.554 95.8927 250.476 95.769 250.382 95.6746C250.287 95.5769 250.18 95.5069 250.059 95.4646C249.939 95.419 249.804 95.3962 249.654 95.3962C249.472 95.3962 249.309 95.432 249.166 95.5037C249.023 95.572 248.902 95.6827 248.805 95.8357C248.707 95.9887 248.632 96.1905 248.58 96.4412C248.531 96.6886 248.507 96.9897 248.507 97.3445V98.8484C248.507 99.1348 248.523 99.3871 248.556 99.6052C248.588 99.8233 248.637 100.01 248.702 100.167C248.767 100.32 248.845 100.447 248.936 100.548C249.031 100.645 249.138 100.717 249.259 100.762C249.382 100.808 249.517 100.831 249.664 100.831C249.849 100.831 250.014 100.795 250.157 100.723C250.3 100.652 250.421 100.538 250.518 100.382C250.616 100.222 250.689 100.015 250.738 99.7615C250.787 99.5076 250.811 99.2032 250.811 98.8484Z" fill="#696D6E"/>
<path d="M139.589 94.5369V101.671H138.412V95.9333L136.669 96.5242V95.5525L139.447 94.5369H139.589ZM147.242 100.733V101.671H142.476V100.865L144.791 98.3406C145.045 98.0541 145.245 97.8067 145.391 97.5984C145.538 97.3901 145.64 97.2029 145.699 97.0369C145.761 96.8676 145.792 96.7032 145.792 96.5437C145.792 96.3191 145.749 96.1222 145.665 95.9529C145.583 95.7804 145.463 95.6453 145.303 95.5476C145.144 95.4467 144.95 95.3962 144.722 95.3962C144.459 95.3962 144.237 95.4532 144.058 95.5671C143.879 95.6811 143.744 95.8389 143.653 96.0408C143.562 96.2393 143.516 96.4672 143.516 96.7244H142.339C142.339 96.311 142.434 95.9333 142.623 95.5916C142.811 95.2465 143.085 94.9731 143.443 94.7712C143.801 94.5662 144.232 94.4636 144.737 94.4636C145.212 94.4636 145.616 94.5434 145.948 94.7029C146.28 94.8624 146.532 95.0886 146.705 95.3816C146.88 95.6746 146.968 96.0212 146.968 96.4216C146.968 96.643 146.933 96.8627 146.861 97.0808C146.789 97.2989 146.687 97.517 146.553 97.7351C146.423 97.95 146.268 98.1664 146.089 98.3845C145.91 98.5994 145.713 98.8175 145.499 99.0388L143.961 100.733H147.242ZM148.659 101.085C148.659 100.902 148.721 100.749 148.845 100.626C148.969 100.499 149.136 100.435 149.348 100.435C149.563 100.435 149.73 100.499 149.851 100.626C149.975 100.749 150.036 100.902 150.036 101.085C150.036 101.267 149.975 101.42 149.851 101.544C149.73 101.667 149.563 101.729 149.348 101.729C149.136 101.729 148.969 101.667 148.845 101.544C148.721 101.42 148.659 101.267 148.659 101.085ZM148.664 96.9246C148.664 96.7423 148.726 96.5893 148.85 96.4656C148.974 96.3386 149.141 96.2751 149.353 96.2751C149.568 96.2751 149.735 96.3386 149.856 96.4656C149.979 96.5893 150.041 96.7423 150.041 96.9246C150.041 97.1069 149.979 97.2598 149.856 97.3835C149.735 97.5072 149.568 97.5691 149.353 97.5691C149.141 97.5691 148.974 97.5072 148.85 97.3835C148.726 97.2598 148.664 97.1069 148.664 96.9246ZM156.264 97.5203V98.6824C156.264 99.239 156.208 99.7143 156.098 100.108C155.99 100.499 155.834 100.816 155.629 101.06C155.424 101.304 155.178 101.483 154.892 101.597C154.608 101.711 154.291 101.768 153.939 101.768C153.659 101.768 153.399 101.733 153.158 101.661C152.92 101.589 152.706 101.477 152.514 101.324C152.322 101.171 152.157 100.974 152.02 100.733C151.887 100.489 151.783 100.198 151.708 99.8591C151.636 99.5206 151.601 99.1283 151.601 98.6824V97.5203C151.601 96.9604 151.656 96.4884 151.767 96.1042C151.877 95.7169 152.035 95.4028 152.24 95.1619C152.445 94.9177 152.689 94.7403 152.973 94.6296C153.259 94.519 153.578 94.4636 153.93 94.4636C154.213 94.4636 154.473 94.4994 154.711 94.571C154.952 94.6394 155.167 94.7485 155.355 94.8982C155.547 95.0479 155.71 95.2432 155.844 95.4841C155.98 95.7218 156.085 96.0098 156.156 96.3484C156.228 96.6837 156.264 97.0743 156.264 97.5203ZM155.087 98.8484V97.3445C155.087 97.0613 155.071 96.8123 155.038 96.5974C155.005 96.3793 154.957 96.1954 154.892 96.0457C154.83 95.8927 154.752 95.769 154.657 95.6746C154.563 95.5769 154.455 95.5069 154.335 95.4646C154.214 95.419 154.079 95.3962 153.93 95.3962C153.747 95.3962 153.585 95.432 153.441 95.5037C153.298 95.572 153.178 95.6827 153.08 95.8357C152.982 95.9887 152.907 96.1905 152.855 96.4412C152.807 96.6886 152.782 96.9897 152.782 97.3445V98.8484C152.782 99.1348 152.798 99.3871 152.831 99.6052C152.864 99.8233 152.912 100.01 152.977 100.167C153.043 100.32 153.121 100.447 153.212 100.548C153.306 100.645 153.414 100.717 153.534 100.762C153.658 100.808 153.793 100.831 153.939 100.831C154.125 100.831 154.289 100.795 154.433 100.723C154.576 100.652 154.696 100.538 154.794 100.382C154.892 100.222 154.965 100.015 155.014 99.7615C155.062 99.5076 155.087 99.2032 155.087 98.8484ZM162.364 97.5203V98.6824C162.364 99.239 162.309 99.7143 162.198 100.108C162.09 100.499 161.934 100.816 161.729 101.06C161.524 101.304 161.278 101.483 160.992 101.597C160.709 101.711 160.391 101.768 160.04 101.768C159.76 101.768 159.499 101.733 159.258 101.661C159.021 101.589 158.806 101.477 158.614 101.324C158.422 101.171 158.257 100.974 158.121 100.733C157.987 100.489 157.883 100.198 157.808 99.8591C157.737 99.5206 157.701 99.1283 157.701 98.6824V97.5203C157.701 96.9604 157.756 96.4884 157.867 96.1042C157.977 95.7169 158.135 95.4028 158.34 95.1619C158.545 94.9177 158.79 94.7403 159.073 94.6296C159.359 94.519 159.678 94.4636 160.03 94.4636C160.313 94.4636 160.573 94.4994 160.811 94.571C161.052 94.6394 161.267 94.7485 161.456 94.8982C161.648 95.0479 161.81 95.2432 161.944 95.4841C162.081 95.7218 162.185 96.0098 162.256 96.3484C162.328 96.6837 162.364 97.0743 162.364 97.5203ZM161.187 98.8484V97.3445C161.187 97.0613 161.171 96.8123 161.138 96.5974C161.106 96.3793 161.057 96.1954 160.992 96.0457C160.93 95.8927 160.852 95.769 160.757 95.6746C160.663 95.5769 160.556 95.5069 160.435 95.4646C160.315 95.419 160.18 95.3962 160.03 95.3962C159.848 95.3962 159.685 95.432 159.542 95.5037C159.398 95.572 159.278 95.6827 159.18 95.8357C159.083 95.9887 159.008 96.1905 158.956 96.4412C158.907 96.6886 158.882 96.9897 158.882 97.3445V98.8484C158.882 99.1348 158.899 99.3871 158.931 99.6052C158.964 99.8233 159.013 100.01 159.078 100.167C159.143 100.32 159.221 100.447 159.312 100.548C159.406 100.645 159.514 100.717 159.634 100.762C159.758 100.808 159.893 100.831 160.04 100.831C160.225 100.831 160.39 100.795 160.533 100.723C160.676 100.652 160.796 100.538 160.894 100.382C160.992 100.222 161.065 100.015 161.114 99.7615C161.163 99.5076 161.187 99.2032 161.187 98.8484Z" fill="#696D6E"/>
<path d="M60.6555 99.7322C60.6555 100.175 60.553 100.548 60.3479 100.85C60.1428 101.153 59.8629 101.383 59.5081 101.539C59.1565 101.692 58.7594 101.768 58.3167 101.768C57.8739 101.768 57.4752 101.692 57.1204 101.539C56.7655 101.383 56.4856 101.153 56.2805 100.85C56.0754 100.548 55.9729 100.175 55.9729 99.7322C55.9729 99.4392 56.0299 99.1739 56.1438 98.9363C56.2577 98.6954 56.4189 98.4887 56.6272 98.3162C56.8388 98.1404 57.0862 98.0053 57.3694 97.9109C57.6558 97.8165 57.9683 97.7693 58.3069 97.7693C58.7561 97.7693 59.1581 97.8523 59.5129 98.0183C59.8678 98.1843 60.1461 98.4138 60.3479 98.7068C60.553 98.9998 60.6555 99.3416 60.6555 99.7322ZM59.4739 99.6736C59.4739 99.436 59.4251 99.2276 59.3274 99.0486C59.2297 98.8695 59.093 98.7312 58.9172 98.6335C58.7415 98.5359 58.538 98.4871 58.3069 98.4871C58.0725 98.4871 57.8691 98.5359 57.6965 98.6335C57.524 98.7312 57.3889 98.8695 57.2913 99.0486C57.1969 99.2276 57.1497 99.436 57.1497 99.6736C57.1497 99.9145 57.1969 100.123 57.2913 100.299C57.3857 100.471 57.5208 100.603 57.6965 100.694C57.8723 100.785 58.079 100.831 58.3167 100.831C58.5543 100.831 58.7594 100.785 58.9319 100.694C59.1044 100.603 59.2379 100.471 59.3323 100.299C59.4267 100.123 59.4739 99.9145 59.4739 99.6736ZM60.4944 96.4314C60.4944 96.7862 60.4 97.102 60.2112 97.3787C60.0256 97.6554 59.7685 97.8735 59.4397 98.033C59.1109 98.1892 58.7366 98.2673 58.3167 98.2673C57.8935 98.2673 57.5159 98.1892 57.1838 98.033C56.8551 97.8735 56.5963 97.6554 56.4075 97.3787C56.2219 97.102 56.1292 96.7862 56.1292 96.4314C56.1292 96.0082 56.2219 95.6518 56.4075 95.3621C56.5963 95.0691 56.8551 94.8461 57.1838 94.6931C57.5126 94.5401 57.8886 94.4636 58.3118 94.4636C58.7349 94.4636 59.1109 94.5401 59.4397 94.6931C59.7685 94.8461 60.0256 95.0691 60.2112 95.3621C60.4 95.6518 60.4944 96.0082 60.4944 96.4314ZM59.3176 96.4705C59.3176 96.2589 59.2753 96.0733 59.1907 95.9138C59.1093 95.7511 58.9937 95.6241 58.844 95.533C58.6943 95.4418 58.5168 95.3962 58.3118 95.3962C58.1067 95.3962 57.9293 95.4402 57.7795 95.5281C57.6298 95.616 57.5142 95.7397 57.4329 95.8992C57.3515 96.0587 57.3108 96.2491 57.3108 96.4705C57.3108 96.6886 57.3515 96.879 57.4329 97.0417C57.5142 97.2013 57.6298 97.3266 57.7795 97.4177C57.9325 97.5089 58.1116 97.5544 58.3167 97.5544C58.5217 97.5544 58.6991 97.5089 58.8489 97.4177C58.9986 97.3266 59.1142 97.2013 59.1956 97.0417C59.2769 96.879 59.3176 96.6886 59.3176 96.4705ZM62.1904 101.085C62.1904 100.902 62.2522 100.749 62.3759 100.626C62.4996 100.499 62.6672 100.435 62.8788 100.435C63.0937 100.435 63.2613 100.499 63.3818 100.626C63.5055 100.749 63.5673 100.902 63.5673 101.085C63.5673 101.267 63.5055 101.42 63.3818 101.544C63.2613 101.667 63.0937 101.729 62.8788 101.729C62.6672 101.729 62.4996 101.667 62.3759 101.544C62.2522 101.42 62.1904 101.267 62.1904 101.085ZM62.1952 96.9246C62.1952 96.7423 62.2571 96.5893 62.3808 96.4656C62.5045 96.3386 62.6721 96.2751 62.8837 96.2751C63.0986 96.2751 63.2662 96.3386 63.3866 96.4656C63.5103 96.5893 63.5722 96.7423 63.5722 96.9246C63.5722 97.1069 63.5103 97.2598 63.3866 97.3835C63.2662 97.5072 63.0986 97.5691 62.8837 97.5691C62.6721 97.5691 62.5045 97.5072 62.3808 97.3835C62.2571 97.2598 62.1952 97.1069 62.1952 96.9246ZM69.7945 97.5203V98.6824C69.7945 99.239 69.7392 99.7143 69.6285 100.108C69.5211 100.499 69.3648 100.816 69.1598 101.06C68.9547 101.304 68.7089 101.483 68.4224 101.597C68.1392 101.711 67.8219 101.768 67.4703 101.768C67.1904 101.768 66.9299 101.733 66.689 101.661C66.4514 101.589 66.2366 101.477 66.0445 101.324C65.8525 101.171 65.6881 100.974 65.5514 100.733C65.4179 100.489 65.3137 100.198 65.2389 99.8591C65.1672 99.5206 65.1314 99.1283 65.1314 98.6824V97.5203C65.1314 96.9604 65.1868 96.4884 65.2974 96.1042C65.4081 95.7169 65.566 95.4028 65.7711 95.1619C65.9762 94.9177 66.2203 94.7403 66.5035 94.6296C66.79 94.519 67.109 94.4636 67.4605 94.4636C67.7437 94.4636 68.0042 94.4994 68.2418 94.571C68.4827 94.6394 68.6975 94.7485 68.8863 94.8982C69.0784 95.0479 69.2411 95.2432 69.3746 95.4841C69.5113 95.7218 69.6155 96.0098 69.6871 96.3484C69.7587 96.6837 69.7945 97.0743 69.7945 97.5203ZM68.6178 98.8484V97.3445C68.6178 97.0613 68.6015 96.8123 68.5689 96.5974C68.5364 96.3793 68.4876 96.1954 68.4224 96.0457C68.3606 95.8927 68.2825 95.769 68.1881 95.6746C68.0937 95.5769 67.9862 95.5069 67.8658 95.4646C67.7454 95.419 67.6103 95.3962 67.4605 95.3962C67.2782 95.3962 67.1155 95.432 66.9723 95.5037C66.829 95.572 66.7086 95.6827 66.6109 95.8357C66.5133 95.9887 66.4384 96.1905 66.3863 96.4412C66.3375 96.6886 66.3131 96.9897 66.3131 97.3445V98.8484C66.3131 99.1348 66.3293 99.3871 66.3619 99.6052C66.3945 99.8233 66.4433 100.01 66.5084 100.167C66.5735 100.32 66.6516 100.447 66.7428 100.548C66.8372 100.645 66.9446 100.717 67.065 100.762C67.1887 100.808 67.3238 100.831 67.4703 100.831C67.6558 100.831 67.8202 100.795 67.9635 100.723C68.1067 100.652 68.2271 100.538 68.3248 100.382C68.4224 100.222 68.4957 100.015 68.5445 99.7615C68.5933 99.5076 68.6178 99.2032 68.6178 98.8484ZM75.8948 97.5203V98.6824C75.8948 99.239 75.8394 99.7143 75.7288 100.108C75.6213 100.499 75.4651 100.816 75.26 101.06C75.0549 101.304 74.8092 101.483 74.5227 101.597C74.2395 101.711 73.9221 101.768 73.5706 101.768C73.2906 101.768 73.0302 101.733 72.7893 101.661C72.5517 101.589 72.3368 101.477 72.1448 101.324C71.9527 101.171 71.7883 100.974 71.6516 100.733C71.5182 100.489 71.414 100.198 71.3391 99.8591C71.2675 99.5206 71.2317 99.1283 71.2317 98.6824V97.5203C71.2317 96.9604 71.287 96.4884 71.3977 96.1042C71.5084 95.7169 71.6663 95.4028 71.8713 95.1619C72.0764 94.9177 72.3206 94.7403 72.6038 94.6296C72.8902 94.519 73.2092 94.4636 73.5608 94.4636C73.844 94.4636 74.1044 94.4994 74.342 94.571C74.5829 94.6394 74.7978 94.7485 74.9866 94.8982C75.1786 95.0479 75.3414 95.2432 75.4749 95.4841C75.6116 95.7218 75.7157 96.0098 75.7874 96.3484C75.859 96.6837 75.8948 97.0743 75.8948 97.5203ZM74.718 98.8484V97.3445C74.718 97.0613 74.7017 96.8123 74.6692 96.5974C74.6366 96.3793 74.5878 96.1954 74.5227 96.0457C74.4609 95.8927 74.3827 95.769 74.2883 95.6746C74.1939 95.5769 74.0865 95.5069 73.9661 95.4646C73.8456 95.419 73.7105 95.3962 73.5608 95.3962C73.3785 95.3962 73.2157 95.432 73.0725 95.5037C72.9293 95.572 72.8088 95.6827 72.7112 95.8357C72.6135 95.9887 72.5387 96.1905 72.4866 96.4412C72.4377 96.6886 72.4133 96.9897 72.4133 97.3445V98.8484C72.4133 99.1348 72.4296 99.3871 72.4622 99.6052C72.4947 99.8233 72.5435 100.01 72.6086 100.167C72.6738 100.32 72.7519 100.447 72.843 100.548C72.9374 100.645 73.0448 100.717 73.1653 100.762C73.289 100.808 73.4241 100.831 73.5706 100.831C73.7561 100.831 73.9205 100.795 74.0637 100.723C74.207 100.652 74.3274 100.538 74.4251 100.382C74.5227 100.222 74.596 100.015 74.6448 99.7615C74.6936 99.5076 74.718 99.2032 74.718 98.8484Z" fill="#696D6E"/>
<mask id="mask0_2561_218" style="mask-type:luminance" maskUnits="userSpaceOnUse" x="8" y="118" width="380" height="360">
<path d="M8.71655 118.369H387.897V462.224C387.897 470.508 381.181 477.224 372.897 477.224H23.7166C15.4323 477.224 8.71655 470.508 8.71655 462.224V118.369Z" fill="white"/>
</mask>
<g mask="url(#mask0_2561_218)">
<path opacity="0.2" fill-rule="evenodd" clip-rule="evenodd" d="M8.71655 343.256C8.71655 343.256 49.3562 276.274 74.6168 276.274C110.857 276.274 115.246 324.894 160.28 324.894C205.314 324.894 214.49 274.813 271.625 215.615C328.761 156.416 387.897 172.565 387.897 172.565V469.224C387.897 473.642 384.315 477.224 379.897 477.224H16.7166C12.2983 477.224 8.71655 473.642 8.71655 469.224V343.256Z" fill="url(#paint12_linear_2561_218)"/>
<path d="M8.71655 342.344C8.71655 342.344 49.3562 275.237 74.6168 275.237C110.857 275.237 115.246 323.948 160.28 323.948C205.314 323.948 214.49 273.773 271.625 214.464C328.761 155.155 387.897 171.333 387.897 171.333" stroke="#1AE8CE" stroke-width="3" stroke-linecap="round"/>
<path d="M8.71806 141.88C8.71806 141.88 46.3056 226.321 156.74 233.131C267.174 239.941 387.897 358.431 387.897 358.431" stroke="#0097FF" stroke-width="3" stroke-linecap="round"/>
</g>
<path d="M8.7168 22C8.7168 13.7157 15.4325 7 23.7168 7H50.0819V477.224H23.7168C15.4325 477.224 8.7168 470.508 8.7168 462.224V22Z" fill="url(#paint13_linear_2561_218)"/>
<path d="M387.896 22C387.896 13.7157 381.181 7 372.896 7H346.531V477.224H372.896C381.181 477.224 387.896 470.508 387.896 462.224V22Z" fill="url(#paint14_linear_2561_218)"/>
<g filter="url(#filter1_d_2561_218)">
<path fill-rule="evenodd" clip-rule="evenodd" d="M224.921 211.177C220.503 211.177 216.921 214.758 216.921 219.177V231.637C216.921 236.056 220.503 239.637 224.921 239.637H233.941L238.983 244.162L244.024 239.637H253.044C257.462 239.637 261.044 236.056 261.044 231.637V219.177C261.044 214.758 257.462 211.177 253.044 211.177H224.921Z" fill="white"/>
</g>
<path d="M236.412 219.09V227.651H235V220.766L232.908 221.475V220.309L236.242 219.09H236.412ZM245.438 222.67V224.065C245.438 224.733 245.371 225.303 245.238 225.776C245.109 226.244 244.922 226.625 244.676 226.918C244.43 227.211 244.135 227.426 243.791 227.563C243.451 227.699 243.07 227.768 242.648 227.768C242.313 227.768 242 227.725 241.711 227.639C241.426 227.553 241.168 227.418 240.938 227.235C240.707 227.051 240.51 226.815 240.346 226.526C240.186 226.233 240.061 225.883 239.971 225.477C239.885 225.071 239.842 224.6 239.842 224.065V222.67C239.842 221.998 239.908 221.432 240.041 220.971C240.174 220.506 240.363 220.129 240.609 219.84C240.856 219.547 241.148 219.334 241.488 219.201C241.832 219.069 242.215 219.002 242.637 219.002C242.977 219.002 243.289 219.045 243.574 219.131C243.863 219.213 244.121 219.344 244.348 219.524C244.578 219.703 244.773 219.938 244.934 220.227C245.098 220.512 245.223 220.858 245.309 221.264C245.395 221.666 245.438 222.135 245.438 222.67ZM244.025 224.264V222.459C244.025 222.119 244.006 221.821 243.967 221.563C243.928 221.301 243.869 221.08 243.791 220.901C243.717 220.717 243.623 220.569 243.51 220.455C243.397 220.338 243.268 220.254 243.123 220.203C242.979 220.149 242.816 220.121 242.637 220.121C242.418 220.121 242.223 220.164 242.051 220.25C241.879 220.332 241.734 220.465 241.617 220.649C241.5 220.832 241.41 221.074 241.348 221.375C241.289 221.672 241.26 222.033 241.26 222.459V224.264C241.26 224.608 241.279 224.91 241.318 225.172C241.357 225.434 241.416 225.658 241.494 225.846C241.572 226.03 241.666 226.182 241.775 226.303C241.889 226.42 242.018 226.506 242.162 226.561C242.311 226.615 242.473 226.643 242.648 226.643C242.871 226.643 243.068 226.6 243.24 226.514C243.412 226.428 243.557 226.291 243.674 226.104C243.791 225.912 243.879 225.664 243.938 225.36C243.996 225.055 244.025 224.69 244.025 224.264Z" fill="#414D55"/>
<path fill-rule="evenodd" clip-rule="evenodd" d="M238.982 260.673C243.552 260.673 247.256 257.349 247.256 253.249C247.256 249.148 243.552 245.824 238.982 245.824C234.413 245.824 230.709 249.148 230.709 253.249C230.709 257.349 234.413 260.673 238.982 260.673Z" fill="white"/>
<path fill-rule="evenodd" clip-rule="evenodd" d="M238.983 258.199C242.029 258.199 244.498 255.982 244.498 253.249C244.498 250.515 242.029 248.299 238.983 248.299C235.937 248.299 233.467 250.515 233.467 253.249C233.467 255.982 235.937 258.199 238.983 258.199Z" fill="url(#paint15_linear_2561_218)"/>
<defs>
<filter id="filter0_d_2561_218" x="0.716797" y="0" width="395.18" height="486.224" filterUnits="userSpaceOnUse" color-interpolation-filters="sRGB">
<feFlood flood-opacity="0" result="BackgroundImageFix"/>
<feColorMatrix in="SourceAlpha" type="matrix" values="0 0 0 0 0 0 0 0 0 0 0 0 0 0 0 0 0 0 127 0" result="hardAlpha"/>
<feOffset dy="1"/>
<feGaussianBlur stdDeviation="4"/>
<feColorMatrix type="matrix" values="0 0 0 0 0.431373 0 0 0 0 0.431373 0 0 0 0 0.431373 0 0 0 0.1 0"/>
<feBlend mode="normal" in2="BackgroundImageFix" result="effect1_dropShadow_2561_218"/>
<feBlend mode="normal" in="SourceGraphic" in2="effect1_dropShadow_2561_218" result="shape"/>
</filter>
<filter id="filter1_d_2561_218" x="200.921" y="197.177" width="76.1228" height="64.9856" filterUnits="userSpaceOnUse" color-interpolation-filters="sRGB">
<feFlood flood-opacity="0" result="BackgroundImageFix"/>
<feColorMatrix in="SourceAlpha" type="matrix" values="0 0 0 0 0 0 0 0 0 0 0 0 0 0 0 0 0 0 127 0" result="hardAlpha"/>
<feOffset dy="2"/>
<feGaussianBlur stdDeviation="8"/>
<feColorMatrix type="matrix" values="0 0 0 0 0.293333 0 0 0 0 0.333211 0 0 0 0 0.431373 0 0 0 0.2 0"/>
<feBlend mode="normal" in2="BackgroundImageFix" result="effect1_dropShadow_2561_218"/>
<feBlend mode="normal" in="SourceGraphic" in2="effect1_dropShadow_2561_218" result="shape"/>
</filter>
<linearGradient id="paint0_linear_2561_218" x1="48.7071" y1="81.2463" x2="48.7071" y2="476.097" gradientUnits="userSpaceOnUse">
<stop stop-color="#E4EAF0" stop-opacity="0.2"/>
<stop offset="0.504355" stop-color="#E4EAF0"/>
<stop offset="0.99905" stop-color="#E4EAF0" stop-opacity="0.257922"/>
</linearGradient>
<linearGradient id="paint1_linear_2561_218" x1="76.2822" y1="81.2466" x2="76.2822" y2="476.472" gradientUnits="userSpaceOnUse">
<stop stop-color="#E4EAF0" stop-opacity="0.2"/>
<stop offset="0.504355" stop-color="#E4EAF0"/>
<stop offset="0.99905" stop-color="#E4EAF0" stop-opacity="0.257922"/>
</linearGradient>
<linearGradient id="paint2_linear_2561_218" x1="102.48" y1="81.2466" x2="102.48" y2="476.472" gradientUnits="userSpaceOnUse">
<stop stop-color="#E4EAF0" stop-opacity="0.2"/>
<stop offset="0.504355" stop-color="#E4EAF0"/>
<stop offset="0.99905" stop-color="#E4EAF0" stop-opacity="0.257922"/>
</linearGradient>
<linearGradient id="paint3_linear_2561_218" x1="130.057" y1="81.2466" x2="130.057" y2="476.472" gradientUnits="userSpaceOnUse">
<stop stop-color="#E4EAF0" stop-opacity="0.2"/>
<stop offset="0.504355" stop-color="#E4EAF0"/>
<stop offset="0.99905" stop-color="#E4EAF0" stop-opacity="0.257922"/>
</linearGradient>
<linearGradient id="paint4_linear_2561_218" x1="156.255" y1="81.2466" x2="156.255" y2="476.472" gradientUnits="userSpaceOnUse">
<stop stop-color="#E4EAF0" stop-opacity="0.2"/>
<stop offset="0.504355" stop-color="#E4EAF0"/>
<stop offset="0.99905" stop-color="#E4EAF0" stop-opacity="0.257922"/>
</linearGradient>
<linearGradient id="paint5_linear_2561_218" x1="183.831" y1="81.2466" x2="183.831" y2="476.472" gradientUnits="userSpaceOnUse">
<stop stop-color="#E4EAF0" stop-opacity="0.2"/>
<stop offset="0.504355" stop-color="#E4EAF0"/>
<stop offset="0.99905" stop-color="#E4EAF0" stop-opacity="0.257922"/>
</linearGradient>
<linearGradient id="paint6_linear_2561_218" x1="210.029" y1="81.2466" x2="210.029" y2="476.472" gradientUnits="userSpaceOnUse">
<stop stop-color="#E4EAF0" stop-opacity="0.2"/>
<stop offset="0.504355" stop-color="#E4EAF0"/>
<stop offset="0.99905" stop-color="#E4EAF0" stop-opacity="0.257922"/>
</linearGradient>
<linearGradient id="paint7_linear_2561_218" x1="237.606" y1="81.2466" x2="237.606" y2="476.472" gradientUnits="userSpaceOnUse">
<stop stop-color="#E4EAF0" stop-opacity="0.2"/>
<stop offset="0.504355" stop-color="#E4EAF0"/>
<stop offset="0.99905" stop-color="#E4EAF0" stop-opacity="0.257922"/>
</linearGradient>
<linearGradient id="paint8_linear_2561_218" x1="263.804" y1="81.2466" x2="263.804" y2="476.472" gradientUnits="userSpaceOnUse">
<stop stop-color="#E4EAF0" stop-opacity="0.2"/>
<stop offset="0.504355" stop-color="#E4EAF0"/>
<stop offset="0.99905" stop-color="#E4EAF0" stop-opacity="0.257922"/>
</linearGradient>
<linearGradient id="paint9_linear_2561_218" x1="291.381" y1="81.2466" x2="291.381" y2="476.472" gradientUnits="userSpaceOnUse">
<stop stop-color="#E4EAF0" stop-opacity="0.2"/>
<stop offset="0.504355" stop-color="#E4EAF0"/>
<stop offset="0.99905" stop-color="#E4EAF0" stop-opacity="0.257922"/>
</linearGradient>
<linearGradient id="paint10_linear_2561_218" x1="317.579" y1="81.2466" x2="317.579" y2="476.472" gradientUnits="userSpaceOnUse">
<stop stop-color="#E4EAF0" stop-opacity="0.2"/>
<stop offset="0.504355" stop-color="#E4EAF0"/>
<stop offset="0.99905" stop-color="#E4EAF0" stop-opacity="0.257922"/>
</linearGradient>
<linearGradient id="paint11_linear_2561_218" x1="345.155" y1="81.2466" x2="345.155" y2="476.472" gradientUnits="userSpaceOnUse">
<stop stop-color="#E4EAF0" stop-opacity="0.2"/>
<stop offset="0.504355" stop-color="#E4EAF0"/>
<stop offset="0.99905" stop-color="#E4EAF0" stop-opacity="0.257922"/>
</linearGradient>
<linearGradient id="paint12_linear_2561_218" x1="8.71655" y1="169.104" x2="8.71655" y2="477.224" gradientUnits="userSpaceOnUse">
<stop stop-color="#1AE8CE"/>
<stop offset="1" stop-color="#1AE8CE" stop-opacity="0.01"/>
</linearGradient>
<linearGradient id="paint13_linear_2561_218" x1="50.0819" y1="7" x2="8.7168" y2="7" gradientUnits="userSpaceOnUse">
<stop stop-color="white" stop-opacity="0.01"/>
<stop offset="1" stop-color="white"/>
</linearGradient>
<linearGradient id="paint14_linear_2561_218" x1="346.531" y1="7" x2="387.896" y2="7" gradientUnits="userSpaceOnUse">
<stop stop-color="white" stop-opacity="0.01"/>
<stop offset="1" stop-color="white"/>
</linearGradient>
<linearGradient id="paint15_linear_2561_218" x1="244.498" y1="258.199" x2="244.498" y2="248.299" gradientUnits="userSpaceOnUse">
<stop stop-color="#0496FF"/>
<stop offset="1" stop-color="#28B5E0"/>
</linearGradient>
</defs>
</svg>
